<mxfile host="app.diagrams.net" modified="2023-12-12T18:37:20.438Z" agent="Mozilla/5.0 (Windows NT 10.0; Win64; x64) AppleWebKit/537.36 (KHTML, like Gecko) Chrome/119.0.0.0 Safari/537.36" etag="Dz35GR6sr8GNUghSoGgu" version="22.1.7" type="device">
  <diagram name="Page-1" id="gKAN0PUI2KJV7dRPyy48">
    <mxGraphModel dx="903" dy="437" grid="1" gridSize="10" guides="1" tooltips="1" connect="1" arrows="1" fold="1" page="1" pageScale="1" pageWidth="850" pageHeight="1100" math="0" shadow="0">
      <root>
        <mxCell id="0" />
        <mxCell id="1" parent="0" />
        <mxCell id="UM5maLKAQYDsUXeNkmRD-11" value="Book" style="swimlane;fontStyle=1;align=center;verticalAlign=top;childLayout=stackLayout;horizontal=1;startSize=26;horizontalStack=0;resizeParent=1;resizeParentMax=0;resizeLast=0;collapsible=1;marginBottom=0;whiteSpace=wrap;html=1;" vertex="1" parent="1">
          <mxGeometry x="80" y="170" width="180" height="140" as="geometry" />
        </mxCell>
        <mxCell id="UM5maLKAQYDsUXeNkmRD-12" value="Authors: List&amp;lt;string&amp;gt;&lt;br&gt;Publisher: string&lt;br&gt;PublicationYear: int&lt;br&gt;Pages: int" style="text;strokeColor=none;fillColor=none;align=left;verticalAlign=top;spacingLeft=4;spacingRight=4;overflow=hidden;rotatable=0;points=[[0,0.5],[1,0.5]];portConstraint=eastwest;whiteSpace=wrap;html=1;" vertex="1" parent="UM5maLKAQYDsUXeNkmRD-11">
          <mxGeometry y="26" width="180" height="64" as="geometry" />
        </mxCell>
        <mxCell id="UM5maLKAQYDsUXeNkmRD-13" value="" style="line;strokeWidth=1;fillColor=none;align=left;verticalAlign=middle;spacingTop=-1;spacingLeft=3;spacingRight=3;rotatable=0;labelPosition=right;points=[];portConstraint=eastwest;strokeColor=inherit;" vertex="1" parent="UM5maLKAQYDsUXeNkmRD-11">
          <mxGeometry y="90" width="180" height="8" as="geometry" />
        </mxCell>
        <mxCell id="UM5maLKAQYDsUXeNkmRD-14" value="ReadBooks(string): List&amp;lt;Book&amp;gt;&lt;br&gt;FindBooks(string): List&amp;lt;Book&amp;gt;" style="text;strokeColor=none;fillColor=none;align=left;verticalAlign=top;spacingLeft=4;spacingRight=4;overflow=hidden;rotatable=0;points=[[0,0.5],[1,0.5]];portConstraint=eastwest;whiteSpace=wrap;html=1;" vertex="1" parent="UM5maLKAQYDsUXeNkmRD-11">
          <mxGeometry y="98" width="180" height="42" as="geometry" />
        </mxCell>
        <mxCell id="UM5maLKAQYDsUXeNkmRD-15" value="Item" style="swimlane;fontStyle=0;childLayout=stackLayout;horizontal=1;startSize=26;fillColor=none;horizontalStack=0;resizeParent=1;resizeParentMax=0;resizeLast=0;collapsible=1;marginBottom=0;whiteSpace=wrap;html=1;" vertex="1" parent="1">
          <mxGeometry x="250" y="20" width="140" height="80" as="geometry" />
        </mxCell>
        <mxCell id="UM5maLKAQYDsUXeNkmRD-16" value="Title: string&lt;br style=&quot;border-color: var(--border-color);&quot;&gt;Isbn: string&lt;br&gt;Downloadable: bool" style="text;strokeColor=none;fillColor=none;align=left;verticalAlign=top;spacingLeft=4;spacingRight=4;overflow=hidden;rotatable=0;points=[[0,0.5],[1,0.5]];portConstraint=eastwest;whiteSpace=wrap;html=1;" vertex="1" parent="UM5maLKAQYDsUXeNkmRD-15">
          <mxGeometry y="26" width="140" height="54" as="geometry" />
        </mxCell>
        <mxCell id="UM5maLKAQYDsUXeNkmRD-38" style="edgeStyle=orthogonalEdgeStyle;rounded=0;orthogonalLoop=1;jettySize=auto;html=1;entryX=0;entryY=0.5;entryDx=0;entryDy=0;" edge="1" parent="1" source="UM5maLKAQYDsUXeNkmRD-19" target="UM5maLKAQYDsUXeNkmRD-34">
          <mxGeometry relative="1" as="geometry" />
        </mxCell>
        <mxCell id="UM5maLKAQYDsUXeNkmRD-19" value="MultiMediaItem" style="swimlane;fontStyle=0;childLayout=stackLayout;horizontal=1;startSize=26;fillColor=none;horizontalStack=0;resizeParent=1;resizeParentMax=0;resizeLast=0;collapsible=1;marginBottom=0;whiteSpace=wrap;html=1;" vertex="1" parent="1">
          <mxGeometry x="340" y="170" width="230" height="70" as="geometry" />
        </mxCell>
        <mxCell id="UM5maLKAQYDsUXeNkmRD-20" value="Tracks:&amp;nbsp;ICollection&amp;lt;MultiMediaRecord&amp;gt;&lt;br&gt;Media:&amp;nbsp;MediaType" style="text;strokeColor=none;fillColor=none;align=left;verticalAlign=top;spacingLeft=4;spacingRight=4;overflow=hidden;rotatable=0;points=[[0,0.5],[1,0.5]];portConstraint=eastwest;whiteSpace=wrap;html=1;" vertex="1" parent="UM5maLKAQYDsUXeNkmRD-19">
          <mxGeometry y="26" width="230" height="44" as="geometry" />
        </mxCell>
        <mxCell id="UM5maLKAQYDsUXeNkmRD-23" value="MultiMediaRecord" style="swimlane;fontStyle=0;childLayout=stackLayout;horizontal=1;startSize=26;fillColor=none;horizontalStack=0;resizeParent=1;resizeParentMax=0;resizeLast=0;collapsible=1;marginBottom=0;whiteSpace=wrap;html=1;" vertex="1" parent="1">
          <mxGeometry x="620" y="166" width="140" height="80" as="geometry" />
        </mxCell>
        <mxCell id="UM5maLKAQYDsUXeNkmRD-24" value="Title: string&lt;br&gt;ArtistName: string&lt;br&gt;Duration: TimeSpan" style="text;strokeColor=none;fillColor=none;align=left;verticalAlign=top;spacingLeft=4;spacingRight=4;overflow=hidden;rotatable=0;points=[[0,0.5],[1,0.5]];portConstraint=eastwest;whiteSpace=wrap;html=1;" vertex="1" parent="UM5maLKAQYDsUXeNkmRD-23">
          <mxGeometry y="26" width="140" height="54" as="geometry" />
        </mxCell>
        <mxCell id="UM5maLKAQYDsUXeNkmRD-26" value="1" style="endArrow=open;html=1;endSize=12;startArrow=diamondThin;startSize=14;startFill=1;align=left;verticalAlign=bottom;rounded=0;entryX=0;entryY=0.5;entryDx=0;entryDy=0;" edge="1" parent="1" source="UM5maLKAQYDsUXeNkmRD-20" target="UM5maLKAQYDsUXeNkmRD-24">
          <mxGeometry x="-1" y="3" relative="1" as="geometry">
            <mxPoint x="580" y="350" as="sourcePoint" />
            <mxPoint x="740" y="350" as="targetPoint" />
          </mxGeometry>
        </mxCell>
        <mxCell id="UM5maLKAQYDsUXeNkmRD-27" style="edgeStyle=orthogonalEdgeStyle;rounded=0;orthogonalLoop=1;jettySize=auto;html=1;entryX=0.449;entryY=0.99;entryDx=0;entryDy=0;entryPerimeter=0;" edge="1" parent="1" source="UM5maLKAQYDsUXeNkmRD-11" target="UM5maLKAQYDsUXeNkmRD-16">
          <mxGeometry relative="1" as="geometry" />
        </mxCell>
        <mxCell id="UM5maLKAQYDsUXeNkmRD-31" value="&amp;laquo;interface&amp;raquo;&lt;br&gt;&lt;b&gt;Name&lt;/b&gt;" style="html=1;whiteSpace=wrap;" vertex="1" parent="1">
          <mxGeometry x="90" y="720" width="110" height="50" as="geometry" />
        </mxCell>
        <mxCell id="UM5maLKAQYDsUXeNkmRD-32" value="&amp;laquo;interface&amp;raquo;&lt;br&gt;&lt;b&gt;Name&lt;/b&gt;" style="html=1;whiteSpace=wrap;" vertex="1" parent="1">
          <mxGeometry x="260" y="730" width="110" height="50" as="geometry" />
        </mxCell>
        <mxCell id="UM5maLKAQYDsUXeNkmRD-33" value="«enumeration»&lt;br style=&quot;border-color: var(--border-color);&quot;&gt;&lt;b style=&quot;border-color: var(--border-color);&quot;&gt;MediaType&lt;/b&gt;" style="swimlane;fontStyle=0;childLayout=stackLayout;horizontal=1;startSize=26;fillColor=none;horizontalStack=0;resizeParent=1;resizeParentMax=0;resizeLast=0;collapsible=1;marginBottom=0;whiteSpace=wrap;html=1;" vertex="1" parent="1">
          <mxGeometry x="620" y="270" width="140" height="80" as="geometry" />
        </mxCell>
        <mxCell id="UM5maLKAQYDsUXeNkmRD-34" value="Cd&lt;br&gt;Dvd&lt;br&gt;BlueRay" style="text;strokeColor=none;fillColor=none;align=left;verticalAlign=top;spacingLeft=4;spacingRight=4;overflow=hidden;rotatable=0;points=[[0,0.5],[1,0.5]];portConstraint=eastwest;whiteSpace=wrap;html=1;" vertex="1" parent="UM5maLKAQYDsUXeNkmRD-33">
          <mxGeometry y="26" width="140" height="54" as="geometry" />
        </mxCell>
        <mxCell id="UM5maLKAQYDsUXeNkmRD-39" style="edgeStyle=orthogonalEdgeStyle;rounded=0;orthogonalLoop=1;jettySize=auto;html=1;entryX=0.571;entryY=1;entryDx=0;entryDy=0;entryPerimeter=0;" edge="1" parent="1" source="UM5maLKAQYDsUXeNkmRD-19" target="UM5maLKAQYDsUXeNkmRD-16">
          <mxGeometry relative="1" as="geometry" />
        </mxCell>
      </root>
    </mxGraphModel>
  </diagram>
</mxfile>
